<?xml version="1.0" encoding="UTF-8"?><svg id="Calque_1" xmlns="http://www.w3.org/2000/svg" viewBox="0 0 297.64 419.53"><defs><style>.cls-1{fill:#fff;stroke-width:0px;}</style></defs><path class="cls-1" d="m170.6,169.69c.12.14.19.24.28.31,6.92,5.09,11.58,11.88,14.78,19.75,2.19,5.38,3.55,10.99,4.72,16.66,1.16,5.62,2.16,11.27,2.57,17.01.26,3.63.24,7.25-.58,10.83-.38,1.64-.92,3.22-1.93,4.6-.82,1.13-1.83,2-3.3,2.14-1.43.14-2.55-.46-3.49-1.48-.21-.23-.42-.46-.63-.69-.62.99-1.22,1.91-1.78,2.86-.11.19-.14.46-.12.68.29,2.41.54,4.83.9,7.23.35,2.3,1.36,4.31,2.82,6.12.87,1.09,1.74,2.18,2.56,3.31.85,1.17,1.46,2.46,1.74,3.9.63,3.24-1.46,5.97-4.76,6.05-1.13.03-2.28-.28-3.41-.46-.38-.06-.75-.21-1.17-.33-.1.42-.18.77-.26,1.11-.55,2.16-2.2,3.55-4.43,3.74-1.63.14-3.17-.21-4.66-.82-.29-.12-.59-.22-.93-.35-.1.44-.18.82-.27,1.2-.74,3.09-3.38,4.77-6.51,4.15-1.86-.37-3.41-1.32-4.75-2.62-1.51-1.47-2.57-3.24-3.39-5.17-1.04-2.43-1.65-4.99-2.17-7.57-.09-.47-.19-.93-.49-1.42-.08.58-.16,1.17-.23,1.75-.31,2.62-.79,5.2-1.71,7.68-.8,2.15-1.9,4.13-3.55,5.76-1.12,1.11-2.4,1.97-3.92,2.44-2.06.65-4.46.27-5.72-1.96-.06-.1-.13-.2-.25-.36-.41.31-.74.58-1.08.83-1.44,1.1-2.95,2.02-4.75,2.44-2.5.58-4.82-.74-5.24-3.06-.03-.15-.13-.28-.16-.34-1.44.38-2.8.81-4.2,1.09-1.31.27-2.62.11-3.88-.36-3.25-1.21-4.47-4.64-2.73-7.64.74-1.27,1.78-2.26,3.05-2.97,1.11-.62,2.28-1.14,3.43-1.67,1.4-.65,1.56-.81,1.42-2.37-.19-2.18-.51-4.36-.7-6.54-.26-3.06-.46-6.12-.68-9.18-.03-.39-.05-.77-.08-1.3-2.38.52-3.9-.69-5.21-2.44-.32.46-.55.82-.8,1.16-1.71,2.32-4.42,2.58-6.52.6-1.16-1.09-1.88-2.47-2.45-3.92-1.17-2.96-1.68-6.06-1.93-9.21-.48-6.1.3-12.1,1.44-18.06,1.34-6.99,3.2-13.82,6.18-20.31,2.88-6.27,6.61-12.01,11.13-17.21,1.3-1.5,2.77-2.86,4.27-4.4,0,0,0-.2-.05-.38-2.44-8.29-.41-15.54,5.31-21.79,6.64-7.27,17.31-9.87,26.3-6.58,8.5,3.1,13.82,10.82,13.62,19.8-.05,2.29-.51,4.51-1.28,6.66-.13.37-.26.74-.38,1.09h0Zm-51.2,70.39l.3-.05c.06-.22.18-.44.18-.66.05-1.31.09-2.62.09-3.93,0-.84-.14-1.67-.11-2.51.04-.92.56-1.56,1.46-1.83s1.67,0,2.25.71c.27.33.46.75.63,1.15.41.95.73,1.95,1.18,2.87.56,1.14,1.2,2.25,1.84,3.34.21.35.45.75,1.08.77.07-.57.22-1.13.17-1.67-.15-1.86-.38-3.72-.57-5.58-.06-.59-.18-1.19-.14-1.78.1-1.83,1.84-2.79,3.45-1.91.45.24.83.62,1.24.93.76.57,1.49,1.21,2.31,1.69,1.44.85,2,.51,2.12-1.17.11-1.58-.21-3.09-.63-4.6-.8-2.85-2.05-5.52-3.34-8.18-.24-.5-.5-1.01-.6-1.55-.23-1.26.64-2.37,1.86-2.42.99-.04,1.67.48,2.1,1.32,1.75,3.46,3.39,6.95,4.3,10.74.49,2.03.77,4.08.36,6.16-.7,3.54-3.62,5.19-7,3.95-.4-.15-.8-.31-1.32-.51.04.72.08,1.31.09,1.9.04,1.64-.03,3.28-.76,4.79-1.1,2.27-3.4,3.02-5.63,1.86-.3-.16-.6-.33-1.02-.55-.03.48-.08.82-.06,1.16.25,3.58.48,7.16.77,10.73.17,2.1.51,4.2.64,6.3.21,3.49-.78,4.98-4.01,6.4-.84.37-1.7.71-2.49,1.17-.61.35-1.21.8-1.67,1.33-.89,1.01-.53,1.96.82,2.04.97.06,2.03-.03,2.92-.38,1.43-.57,2.75-1.41,4.11-2.16.45-.25.85-.6,1.31-.83.86-.42,1.72-.38,2.45.28.72.64.95,1.46.6,2.39-.2.52-.47,1.02-.65,1.54-.16.47-.26.96-.38,1.44.07.06.14.12.21.19.6-.27,1.26-.46,1.78-.84,1.09-.8,2.12-1.68,3.15-2.56.54-.46,1.01-1.02,1.56-1.48.71-.6,1.53-.85,2.45-.46.95.4,1.37,1.17,1.45,2.16.03.36,0,.72.04,1.07.05.42.16.83.25,1.26,1.07,0,1.79-.49,2.47-1.05,1.26-1.04,2.1-2.39,2.73-3.87.87-2.03,1.34-4.17,1.64-6.35.56-3.96.64-7.94.72-11.93.06-2.91.14-5.82.26-8.73.03-.75.17-1.51.4-2.22.29-.91.98-1.45,1.96-1.51.97-.05,1.69.41,2.14,1.25.21.38.36.8.47,1.22.2.81.39,1.63.52,2.46.73,4.81,1.42,9.62,2.15,14.43.47,3.07,1.04,6.13,2.12,9.07.53,1.43,1.19,2.79,2.16,3.97.69.84,1.48,1.56,2.51,1.98,1.63.66,2.51.06,2.41-1.67-.04-.63-.2-1.26-.34-1.88-.1-.43-.28-.83-.39-1.26-.23-.93-.04-1.75.72-2.37.72-.58,1.68-.62,2.57-.07.51.31.96.71,1.44,1.06,1.27.92,2.6,1.72,4.15,2.06,1.94.42,2.48-.16,1.91-2.04-.2-.65-.48-1.27-.69-1.91-.28-.88-.07-1.67.6-2.3.68-.64,1.5-.7,2.34-.38.4.16.77.42,1.15.63.91.49,1.8,1.03,2.74,1.45.61.28,1.28.46,1.94.57,1.54.25,2.03-.37,1.41-1.83-.33-.76-.78-1.48-1.27-2.16-.67-.94-1.42-1.82-2.14-2.73-1.71-2.17-2.9-4.59-3.37-7.31-.38-2.24-.64-4.5-.9-6.75-.07-.6-.18-1.03-.81-1.3-1.26-.54-2.07-1.59-2.76-2.73-.2-.32-.39-.65-.58-.96-.68.88-1.23,1.78-1.95,2.49-1.84,1.8-4.37,1.63-5.96-.4-.58-.74-1.07-1.62-1.33-2.51-.44-1.56-.72-3.18-.98-4.79-.18-1.09-.2-2.21-.3-3.32-.18,0-.31-.03-.41,0-2.43.76-4.39-.58-5.24-2.61-.48-1.16-.83-2.43-.97-3.67-.46-4.25.32-8.34,1.85-12.3.14-.36.34-.73.6-1.02.59-.66,1.36-.81,2.19-.53.77.26,1.32.98,1.32,1.82,0,.43-.11.87-.23,1.28-.26.88-.6,1.74-.83,2.62-.72,2.76-1.12,5.55-.63,8.4.11.65.2,1.32.91,2.04.22-.34.38-.62.57-.87.31-.41.63-.82.98-1.2.66-.71,1.48-.94,2.4-.66.89.27,1.38.94,1.55,1.81.1.5.1,1.03.12,1.55.07,1.79.06,3.59.22,5.38.13,1.46.43,2.91.71,4.36.09.47.38.91.62,1.47.91-.95,1.27-1.98,1.46-3.02.38-2.07.62-4.17.92-6.26.06-.43.07-.88.19-1.29.28-.91,1.06-1.46,1.97-1.46s1.68.53,1.97,1.45c.14.45.16.94.25,1.41.4,2.07.75,4.15,1.22,6.21.21.88.65,1.71,1.07,2.52.13.26.54.57.78.54.27-.03.59-.38.72-.66.24-.54.4-1.13.52-1.71.47-2.16.49-4.35.46-6.55,0-.56-.04-1.12.04-1.67.14-1.09.96-1.86,1.97-1.93.96-.07,1.81.52,2.14,1.56.18.57.25,1.17.4,1.74.5,1.89.98,3.78,1.53,5.65.18.62.45,1.25,1.03,1.74.91-1.01,1.22-2.2,1.49-3.4.81-3.59.69-7.21.36-10.83-.56-6.08-1.69-12.08-3.02-18.03-1.11-4.99-2.45-9.91-4.53-14.59-2.61-5.88-6.2-11.04-11.16-15.19-.42-.35-.88-.66-1.36-1.02-.25.31-.45.56-.64.8-5.96,7.66-13.76,11.2-23.44,10.1-6.1-.69-11.08-3.61-14.75-8.61-.21-.28-.42-.56-.72-.95-.9.91-1.77,1.73-2.55,2.62-5.1,5.79-9.19,12.23-12.1,19.39-2.58,6.35-4.15,12.97-5.28,19.71-.85,5.09-1.3,10.2-.71,15.36.28,2.42.73,4.81,1.72,7.06.31.71.65,1.43,1.34,1.97.65-.73.88-1.55.97-2.36.17-1.62.22-3.25.31-4.88.02-.4-.03-.8.03-1.19.15-.98.88-1.68,1.82-1.79.87-.11,1.73.38,2.12,1.25.16.36.22.76.32,1.15.47,1.69.9,3.38,1.43,5.05.21.66.63,1.26.95,1.89h.03Zm25.23-93.98c-.08-.09-.16-.18-.24-.27-.83.36-1.67.68-2.49,1.07-4.8,2.28-8.37,5.79-10.38,10.75-3.63,9,.69,18.57,9.79,21.76,3.19,1.12,6.48,1.39,9.79.75,7.46-1.45,12.96-5.52,15.77-12.66,2.27-5.76,1.52-11.27-2.33-16.24-.25-.33-.56-.61-.92-.99-.24.54-.38.9-.56,1.26-1.71,3.42-3.37,6.87-5.17,10.24-.74,1.4-1.71,2.69-2.73,3.91-.59.71-1.4,1.32-2.23,1.74-1.2.61-2.36.2-3.13-.91-.18-.25-.34-.52-.5-.78-2.59,1.24-3.06,1.11-4.62-1.25-.13.07-.27.14-.39.22-1.86,1.39-3.78.48-4.09-1.8-.15-1.13-.19-2.31-.07-3.45.44-4.22,1.83-8.15,3.77-11.9.25-.49.49-.98.74-1.47v.02Zm7.12,19.07c.82-.14,1.24-.59,1.59-1.05.77-1.01,1.55-2.03,2.2-3.12,2.09-3.45,3.86-7.07,5.43-10.78.77-1.81.75-1.84-1-2.85-3.39-1.95-7.06-2.64-10.94-2.37-.48.03-.8.19-1.08.6-3.13,4.57-5.04,9.57-5.49,15.11-.05.65.07,1.3.11,1.96.09.03.17.06.26.09.31-.29.63-.56.92-.86.31-.31.57-.67.91-.95.93-.77,2.02-.41,2.27.77.1.46.09.95.16,1.42.04.25.13.49.24.87.37-.34.65-.56.89-.81.31-.31.56-.69.89-.97.84-.7,1.82-.41,2.16.64.1.3.11.63.17.94.09.42.18.84.3,1.36h.01Z"/><path class="cls-1" d="m72.2,314.82c-15.21-.02-27.53-12.38-27.45-27.62.08-15.82,12.98-27.49,27.64-27.4,15.18.09,27.41,12.44,27.36,27.72-.05,15.01-12.48,27.33-27.55,27.31h0Zm16.24-31.45c-2.17.79-4.23,1.52-6.27,2.3-.23.09-.44.44-.52.71-.58,1.82-1.12,3.66-1.67,5.49-.23.76-.73,1.57-.61,2.27.13.75.83,1.42,1.31,2.09.81,1.13,1.65,2.23,2.55,3.45,1.54-.54,3.02-1.02,4.46-1.57.33-.13.66-.45.83-.77,1.4-2.63,2.18-5.47,2.7-8.38.05-.3.09-.68-.05-.92-.87-1.56-1.79-3.09-2.72-4.67h-.01Zm-30.83-2.36c2.36.88,4.59,1.71,6.92,2.57,2.23-1.83,4.49-3.7,6.86-5.65-.12-1.9-.25-3.92-.37-5.87-1.83-.56-3.56-1.11-5.32-1.6-.3-.09-.71,0-1.01.14-2.34,1.07-4.43,2.52-6.31,4.26-.22.2-.45.5-.47.78-.13,1.74-.21,3.49-.31,5.38h.01Zm16.08-9.22c.12,1.91.24,3.61.32,5.32.03.65.26,1.09.84,1.46.67.42,1.22,1.02,1.84,1.52,1.18.95,2.36,1.89,3.57,2.8.25.18.69.33.95.24,2.03-.69,4.04-1.43,6.19-2.21,0-1.25-.04-2.44.01-3.63.03-.65-.18-1.13-.6-1.61-2.21-2.53-5.06-4.09-8.09-5.37-.23-.1-.56-.12-.79-.04-1.39.47-2.76.98-4.24,1.52h0Zm-16.34,11.98c-.38.48-.73.9-1.06,1.35-.73,1-1.42,2.03-2.18,3-.36.46-.48.89-.28,1.42.68,1.87,1.36,3.73,2.03,5.6.44,1.23,1.21,2.04,2.53,2.42,1.02.3,1.98.84,2.97,1.26.39.17.8.29,1.26.45,1.03-1.45,2.01-2.85,3.02-4.23.28-.38.19-.71.06-1.12-.85-2.48-1.69-4.97-2.5-7.47-.14-.43-.35-.69-.76-.83-1.68-.61-3.36-1.22-5.08-1.85h0Zm21.74,1.75c-1.92-1.6-3.74-3.14-5.59-4.65-.68-.55-.82-.56-1.56.03-1.34,1.07-2.64,2.18-3.95,3.27-.73.61-1.46,1.21-2.2,1.84.78,2.61,1.6,5.12,2.61,7.48,2.74-.16,5.32-.31,7.9-.45.52-.03.63-.39.76-.78.54-1.71,1.09-3.41,1.62-5.12.17-.56.29-1.14.41-1.64v.02Zm1.55,15.18c-1.14-1.57-2.26-3.11-3.37-4.66-.29-.4-.69-.35-1.08-.33-2.58.17-5.16.34-7.74.54-.21.02-.49.12-.61.28-1.05,1.44-2.08,2.9-3.13,4.38,1.04,1.39,2.01,2.71,3.01,3.99.15.19.44.35.69.38.99.12,1.99.3,2.97.25,1.98-.1,3.96-.31,5.94-.52.23-.02.48-.26.63-.46.91-1.26,1.79-2.53,2.7-3.84h-.01Zm-15.87,8.23c.27-.25.45-.4.61-.57.87-.88.88-.91.17-1.88-.94-1.28-1.87-2.57-2.87-3.81-.33-.41-.82-.73-1.3-.96-1.19-.56-2.41-1.04-3.62-1.54-.5-.21-1-.42-1.63-.67-.27,1.02-.54,1.88-.72,2.77-.05.25.09.63.27.83,2.53,2.67,5.54,4.6,9.08,5.83h.01Zm1.41-41.21c1.7.74,3.31,1.13,4.93,1.51.95.22,1.76.1,2.64-.26,1.36-.56,2.77-.98,4.16-1.45.25-.09.5-.17.74-.26-.25-1.4-1.01-2.23-2.28-2.48-1.9-.38-.08-.02-.12-.03-2.61-.48-5.22-.46-7.83-.06-.73.11-1.25.38-1.48,1.14-.18.6-.47,1.17-.76,1.88h0Zm-14.67,19.5c.18-.25.29-.42.4-.58.98-1.35,1.98-2.69,2.94-4.05.14-.2.19-.51.2-.77.06-1.67.1-3.33.14-5v-.99c-.53-.05-.96-.12-1.39-.14-.43-.02-.86,0-1.26,0-1.59,2.33-3.36,7.62-3.08,10.5.58.3,1.21.62,2.03,1.03h.02Zm38.1,13.04c-.29.1-.51.18-.74.25-1.63.52-3.23,1.12-4.89,1.53-.92.23-1.59.64-2.07,1.44-.33.55-.72,1.05-1.08,1.58-.46.68-.92,1.36-1.42,2.08.39.22.68.35.94.53.82.56,1.56.45,2.41-.02,2.62-1.43,4.94-3.21,6.87-5.49.23-.27.42-.56.65-.87-.25-.37-.46-.7-.68-1.04h0Zm5.45-14.8c-.25-3.09-1.07-5.94-2.46-8.61-.11-.22-.37-.42-.61-.5-.55-.19-1.13-.3-1.7-.44-.09.2-.18.3-.19.4-.05,1.43-.11,2.86-.12,4.3,0,.29.16.6.32.86.78,1.29,1.59,2.57,2.39,3.85.22.36.45.72.69,1.1.58-.33,1.06-.61,1.66-.95h.02Zm-41.91,14.43c.29-.67.46-1.19.73-1.66.22-.4.22-.72,0-1.11-1.21-2.3-2.12-4.71-2.75-7.27-.53-.18-1.03-.35-1.68-.58.34,3.93,1.54,7.35,3.69,10.63h.01Zm10.68-33.89c-3.78,1.54-6.84,3.78-9.37,6.89,1.09.48,1.81.28,2.62-.4,1.46-1.22,2.99-2.4,4.65-3.31,1.26-.7,2.08-1.47,2.1-3.18h0Zm24.49,7.36c.63-.11,1.15-.2,1.71-.3-1.57-2.54-6.39-6.18-8.6-6.54v2.03c2.51,1.3,4.9,2.72,6.89,4.8h0Zm-11.66,34.62c-2.73.09-5.29.17-7.9.25-.24.45-.51.96-.83,1.55,3.34.59,6.54.54,9.82-.28-.44-.61-.8-1.11-1.09-1.52Zm15.22-9.08c1.95-2.93,3.45-8.18,2.98-10.16-.5.16-.94.33-1.07.96-.55,2.85-1.32,5.64-2.57,8.23.24.36.43.65.65.97h0Z"/><path class="cls-1" d="m123.68,91.07c.07-.53.15-1.08.22-1.63.15-1.17.77-2,1.82-2.49,1.61-.75,3.32-1.18,5.08-1.21.85-.02,1.74.26,2.54.58.94.37,1.25,1.28,1.38,2.23.24,1.9.46,3.8.72,5.69.2,1.41.46,2.82.7,4.33,7.26-2.17,14.45-4.01,21.88-5.25-.14-.82-.22-1.53-.39-2.21-.54-2.29-1.09-4.57-1.68-6.85-.42-1.61,0-2.63,1.46-3.33,2.36-1.13,4.84-1.27,7.36-.74,1.18.25,2.11.91,2.75,1.95.17.27.34.53.5.78,1.15.09,2.26.16,3.36.28,2.44.26,4.12,1.58,5.16,3.76.97,2.03,1.49,4.21,1.92,6.4.66,3.4,1.27,6.82,1.82,10.24.18,1.09.18,2.23.13,3.34-.1,2.22-1.11,4-3.02,5.14-1.16.68-2.43,1.2-3.69,1.66-.68.25-.95.57-.95,1.28,0,.55-.11,1.11-.26,1.65-.38,1.44-1.32,2.38-2.77,2.68-1.24.26-2.52.43-3.79.49-2.15.09-3.48-.95-3.92-3.07-.4-1.91-.67-3.85-.99-5.77-.26-1.56-.51-3.13-.78-4.8-7.4,1.32-14.63,2.86-21.93,4.62.18,1.07.33,2.08.51,3.09.42,2.39.87,4.78,1.28,7.18.09.55.15,1.11.14,1.66-.02,1.09-.51,2-1.51,2.38-1.33.51-2.71.95-4.11,1.18-1.71.27-3.11-.5-4.13-1.89-.42-.57-.77-1.19-1.06-1.64-1.59.02-3.06.13-4.51.02-2.37-.18-4.16-1.43-5.17-3.56-.76-1.61-1.36-3.32-1.83-5.04-1.2-4.44-1.9-8.97-1.9-13.58,0-.95.09-1.91.23-2.85.32-2.16,1.48-3.76,3.41-4.77,1.3-.68,2.65-1.27,4.02-1.92h0Zm11.76,30.33c-1.77-10.33-3.54-20.62-5.3-30.9-1.81.17-1.82.17-1.84,1.86-.09,6.48.61,12.88,2.16,19.17.79,3.17,1.77,6.28,3.19,9.24.42.86.6,1.19,1.78.63h0Zm32.69-6.43c0-1.51.11-2.87-.02-4.21-.68-6.85-1.73-13.65-3.05-20.41-.32-1.64-.72-3.26-1.12-4.88-.08-.31-.32-.73-.57-.8-.79-.21-1.62-.32-2.43.11,2.45,10.02,3.7,20.2,5.48,30.36.61-.06,1.11-.11,1.71-.18h0Zm-9.23-16.97c-3.5.11-19.99,4.15-21.88,5.36.27.9.15,1.92.61,2.75,7.31-1.54,14.54-3.06,21.86-4.6-.2-1.21-.4-2.37-.59-3.51Zm-31.28,20.17c-2.45-7.15-3.55-14.44-3.91-21.88-2.37.58-3,1.33-3.1,3.61-.01.32-.02.64-.01.96.14,4.84.89,9.59,2.37,14.21.23.72.56,1.4.89,2.08.25.52.66.95,1.26,1,.78.07,1.57.02,2.51.02h-.01Zm45.16-8.95c.64-.28,1.25-.53,1.84-.82.83-.4,1.26-1.08,1.24-2.01-.02-.71,0-1.44-.13-2.14-.51-3.06-.99-6.12-1.62-9.16-.41-1.98-.97-3.93-1.63-5.85-.49-1.43-1.59-1.82-3.05-1.43,1.11,7.07,2.21,14.13,3.35,21.41Z"/><path class="cls-1" d="m11.94,195.1c.07-3.95,1.75-8.45,5.81-11.86,3.85-3.22,8.38-4.2,13.24-3.45,10.21,1.58,18.58,10.59,19.55,20.91.15,1.58.11,3.19.36,4.75.47,2.95,1.14,5.86,1.62,8.81.46,2.83.82,5.68,1.16,8.52.07.61.35,1.03.7,1.46,4.18,5.08,8.36,10.16,12.53,15.25.3.37.61.74.84,1.16.56,1.03.32,2.23-.55,2.91-.85.66-2,.65-2.86-.08-.39-.33-.72-.74-1.05-1.14-4.16-5.05-8.32-10.09-12.44-15.16-.58-.71-1.23-1.16-2.08-1.49-4.93-1.94-9.84-3.94-14.76-5.9-.55-.22-1.13-.43-1.71-.51-6.49-.85-11.56-4.09-15.51-9.19-3.17-4.09-4.84-8.95-4.84-14.98h0Zm35.74,18.01c-.09-.03-.18-.05-.26-.08-1.53,2.03-3.43,3.62-5.91,4.84,2.52,1.03,4.81,2,7.36,2.85-.42-2.68-.8-5.14-1.18-7.6h-.01Zm-10.32-3.69c1.11,1.33,2.11,2.53,3.1,3.72,1.39-.79,1.93-1.27,2.51-2.22-.96-1.16-1.94-2.34-2.96-3.56-.92.72-1.73,1.34-2.66,2.07h.01Zm-6.71,1.87c1.02-.8,1.93-1.52,2.91-2.28-.73-.87-1.36-1.61-2.07-2.45-.99.76-1.92,1.46-2.91,2.22.72.87,1.34,1.63,2.07,2.51Zm1.65,2.09c.56.52.95,1.22,1.46,1.31,1.34.25,2.7,0,4.16-.46-.95-1.14-1.76-2.11-2.66-3.18-.98.77-1.9,1.49-2.96,2.33Zm3.71-20.87c-.69-.83-1.32-1.57-2-2.39-1.01.8-1.93,1.53-2.91,2.31.71.84,1.34,1.58,1.99,2.35,1.02-.8,1.93-1.5,2.91-2.27h0Zm2.52,8.68c.49.94,1.18,1.65,1.94,2.42.97-.76,1.89-1.48,2.87-2.25-.69-.82-1.29-1.54-1.94-2.32-.98.74-1.89,1.43-2.86,2.16h0Zm-.82-6.63c-1.04.81-1.96,1.53-2.93,2.29.72.85,1.32,1.57,1.97,2.34,1.01-.77,1.94-1.48,2.94-2.24-.7-.85-1.3-1.57-1.97-2.39h0Zm-13.46,3.3c-.93.85-1.97,1.42-2.77,2.38.63.74,1.21,1.43,1.83,2.17.97-.76,1.87-1.46,2.86-2.23-.65-.79-1.25-1.51-1.91-2.32h-.01Zm-4.83-9.95c.72.86,1.34,1.6,2,2.39.94-.76,1.76-1.43,2.67-2.17-.7-.83-1.32-1.57-2.04-2.42-.92.77-1.73,1.44-2.63,2.19h0Zm5.57,16.56c.67.8,1.25,1.49,1.88,2.24,1-.76,1.92-1.47,2.91-2.22-.67-.8-1.25-1.49-1.9-2.26-.95.74-1.85,1.44-2.88,2.24h-.01Zm13.31.82c-.68-.82-1.32-1.59-2-2.41-.93.72-1.77,1.37-2.68,2.07.71.84,1.35,1.59,2.04,2.41.89-.7,1.7-1.33,2.63-2.07h0Zm6.43,3.56c.39-1.28.68-2.31,1.02-3.31.31-.9.03-1.52-.84-2.05-.91.72-1.82,1.44-2.8,2.21.88,1.06,1.65,1.99,2.62,3.15Zm-18.39-12.63c.72.84,1.32,1.55,1.96,2.3.93-.74,1.76-1.39,2.65-2.1-.67-.81-1.27-1.52-1.94-2.33-.89.71-1.72,1.37-2.67,2.12h0Zm8.26,4.6c-.71-.84-1.31-1.55-1.95-2.32-.93.72-1.76,1.37-2.67,2.07.69.82,1.29,1.54,1.92,2.29.93-.71,1.75-1.33,2.7-2.05h0Zm-5.19-10.46c1.01-.8,1.92-1.53,2.91-2.32-.56-.65-1.03-1.2-1.55-1.8-1,.81-1.92,1.54-2.87,2.31.55.66.99,1.2,1.51,1.81h0Zm-11.21,5.92c.57.67,1.03,1.21,1.52,1.79.98-.78,1.87-1.48,2.84-2.25-.57-.65-1.05-1.2-1.55-1.77-.97.78-1.84,1.47-2.81,2.24h0Zm9.12-4.25c-.56-.67-1.02-1.21-1.52-1.81-.93.74-1.77,1.42-2.67,2.14.55.66,1,1.19,1.51,1.79.92-.73,1.75-1.38,2.69-2.12h-.01Zm14.49,3.3c.64-.51,1.21-.96,1.85-1.46-.63-.91-1.18-1.7-1.77-2.56-.74.59-1.36,1.07-2.05,1.62.68.82,1.29,1.57,1.98,2.4h0Zm-21.01,12.41c.71.8,1.19,1.58,2.06,2.02.61-.47,1.2-.93,1.85-1.44-.63-.76-1.2-1.44-1.83-2.2-.71.55-1.36,1.05-2.08,1.62Zm15.31-19.28c.69.83,1.33,1.6,2.01,2.41.71-.56,1.29-1.02,1.98-1.56-.93-.75-1.71-1.38-2.52-2.03-.53.43-.96.77-1.47,1.18Zm-14.93,15.58c-.7-.81-1.28-1.49-1.9-2.21-.51.42-.93.76-1.39,1.14.45.88.87,1.68,1.33,2.59.68-.52,1.26-.97,1.96-1.51h0Zm7.71-19.74c-1.54-.16-2.79-.08-4.14.45.52.62.96,1.15,1.45,1.73.89-.72,1.7-1.38,2.69-2.18Zm-4.06,27.32c1.02.58,1.84,1.06,2.67,1.51.34.18.69.23.93-.32-.63-.76-1.28-1.54-1.98-2.4-.52.38-.95.71-1.62,1.21Zm-6.9-21.31c-.63,1.22-1.02,2.26-1.12,3.65.92-.73,1.67-1.33,2.49-1.99-.47-.57-.86-1.04-1.37-1.66h0Zm25.59,7.11c.74.78,1.15,1.65,2.19,2.25-.22-1.22-.4-2.22-1-3.19-.41.33-.75.59-1.18.94h0Zm-8.37-11.55c-.63-.26-1-.42-1.36-.57-.05.06-.09.11-.14.17.25.29.5.57.79.91.26-.19.41-.29.71-.51Zm-18.36,13.29c.1.29.2.58.34,1.01.53-.68.09-.84-.34-1.01Z"/><path class="cls-1" d="m225.31,160.45c-12.26-.09-22.91-8.01-26.21-19.49-3.46-12.06,1.95-24.83,13.11-30.97,12.85-7.06,29.12-2.84,36.72,9.53,8.8,14.32,2.24,33.08-13.68,39.1-3.14,1.19-6.72,1.85-9.94,1.82h0Zm-3.48-25.52c8.49,2.53,16.99,4.12,25.89,3.24.94-4.51.62-8.81-1.13-13.09-.59,0-1.1-.02-1.61,0-1.75.07-3.35.68-4.9,1.42-1.91.9-3.78,1.87-5.68,2.78-2.42,1.16-4.95,2.01-7.65,2.18-1.26.08-2.53,0-3.87,0-.35,1.15-.67,2.23-1.04,3.45h-.01Zm25.05,5.98c-8.91.69-17.34-.96-25.73-3.38-.21.95-.39,1.75-.57,2.52.17.15.25.24.35.29,3.25,1.81,5.92,4.28,8.31,7.09.85,1,1.67,2.04,2.61,2.95.94.9,2.01,1.68,3.04,2.48.6.47,1.19.39,1.86,0,4.37-2.54,7.63-6.08,9.67-10.72.14-.32.25-.66.46-1.24h0Zm-23.15-12.08c.54.04.85.08,1.16.08,3.18.02,6.12-.9,8.94-2.3,1.71-.85,3.41-1.72,5.14-2.54,1.81-.85,3.68-1.53,5.7-1.67.13,0,.26-.12.47-.22-.27-.43-.48-.8-.73-1.16-2.48-3.6-5.75-6.25-9.76-7.99-1.23-.53-1.24-.53-2.14.41-3.24,3.38-5.62,7.31-7.35,11.64-.47,1.18-.9,2.37-1.42,3.73v.02Zm6.63-16.99c-.26-.13-.39-.23-.53-.25-5.27-.9-10.3-.2-15.07,2.26-.54.28-.78.65-.76,1.22.04,1.27,0,2.55.15,3.81.43,4.03,2.64,6.9,6.04,8.95.26.16.56.25.97.43,2.03-6.08,4.75-11.7,9.21-16.41h0Zm-26.34,14.22c3.03,2.85,12.44,7.64,15.34,7.83.29-1,.59-2.02.89-3.07-2.94-1.28-5.1-3.29-6.78-5.84-1.72-2.61-2.09-5.59-2.25-8.82-3.41,2.76-5.74,5.98-7.2,9.9Zm1,17.08c1.29,4.03,7.92,10.24,11.09,10.59.42-3.97.85-7.94,1.28-12-4.33-1.19-8.38-.26-12.36,1.41h0Zm27.47,11.57c-1.27-1.28-2.45-2.41-3.56-3.59-.95-1.02-1.82-2.11-2.76-3.15-1.55-1.73-3.29-3.25-5.24-4.52-.24-.16-.53-.25-.91-.43-.6,4.02-1.27,7.9-.98,11.92,4.55,1.26,8.96,1.16,13.45-.23h0Zm-29.17-25.74c-1.17,3.09-.54,9.68.71,11.7,2.19-.94,4.47-1.62,6.85-1.96,2.39-.34,4.75-.19,7.15.36.13-.47.24-.84.33-1.22.08-.38.14-.76.21-1.22-5.44-1.91-10.64-4.17-15.25-7.66h0Z"/><path class="cls-1" d="m81.95,166.3c-1.15,3.74-2.92,5.32-5.79,5.28-2.46-.04-4.64-1.74-5.24-4.14-.39-1.54-.17-3.01.69-4.36.82-1.3,2.04-2.08,3.72-2.53-1.16-.98-2.12-1.8-3.2-2.71-1.08,3.34-3.17,5.14-6.71,4.6-2.22-.34-4.01-2.28-4.37-4.52-.4-2.52.72-4.49,3.53-6.16-.39-.71-1.58-1.78-2.64-2.38-1.78,3.28-3.64,4.53-6.21,4.16-2.31-.33-4.15-1.99-4.69-4.22-.61-2.55.41-4.58,3.4-6.6-.77-.69-1.52-1.36-2.4-2.14-.71,1.78-1.8,3.04-3.51,3.65-1.08.39-2.18.43-3.29.13-2.28-.63-3.92-2.6-4.09-4.92-.19-2.67,1.13-4.47,4.38-5.96.02-.07.07-.16.05-.22-.53-2.04.16-3.7,1.67-5.04.86-.77,1.78-1.48,2.73-2.13,1.45-.99,2.94-1.92,4.42-2.85,5.53-3.46,9.98-8.03,13.76-13.29,1.02-1.42,1.93-2.93,2.91-4.38.31-.46.65-.91,1-1.34,1.58-2.01,2.81-2.31,5.08-1.16,3.88,1.97,7.57,4.26,11.06,6.86,1.44,1.07,2.79,2.25,4.14,3.42.45.39.82.87,1.16,1.36,1.2,1.69,1.32,3.48.3,5.28-.43.76-.94,1.49-1.5,2.15-2.09,2.46-4.23,4.88-6.34,7.32-.41.48-.79.99-1.26,1.57.31.4.57.79.88,1.14,1.36,1.56,2.78,3.08,4.1,4.67,1.64,1.96,3.05,4.08,4.16,6.4,2.56,5.32,2.49,10.62-.2,15.87-1.13,2.21-2.52,4.25-4.31,5.99-.51.5-1.08.95-1.69,1.33-1.53.95-3.14,1.06-4.8.32-.29-.13-.57-.27-.94-.45h.04Zm-6.23-58.87c-.99,1.35-1.92,2.55-2.77,3.79-4.58,6.64-10.06,12.34-17.01,16.54-1.53.93-3.01,1.95-4.49,2.96-.48.33-.89.77-1.41,1.22.37.49.64.94,1,1.29,1.48,1.45,2.94,2.92,4.51,4.28,7.33,6.33,14.69,12.61,22.03,18.93,1.96,1.69,3.87,3.45,5.82,5.14,1.54,1.33,1.83,1.31,3.21-.22,1.72-1.92,3.06-4.07,3.89-6.53.85-2.5.94-5.03.01-7.5-.6-1.59-1.3-3.2-2.25-4.59-1.41-2.06-3.07-3.96-4.65-5.9-.88-1.08-1.88-2.07-2.69-3.2-1.11-1.54-1.12-3.21-.15-4.83.45-.75.99-1.45,1.56-2.11,2.1-2.45,4.24-4.87,6.34-7.32,1.53-1.79,1.58-1.97-.24-3.39-2.44-1.91-4.98-3.71-7.54-5.46-1.61-1.1-3.34-2.01-5.15-3.08l-.02-.02Zm-29.03,30.69c-.47,0-.92.44-.91.91,0,.48.47.92.94.87.49-.05.79-.35.84-.85.05-.47-.4-.94-.87-.94h0Zm29.54,28.82c.48.02.92-.4.9-.89-.02-.5-.29-.81-.78-.89-.47-.07-.94.35-.97.82-.04.48.37.94.85.96h0Zm-9.68-10.78c-.49,0-.93.41-.92.88,0,.48.44.9.92.87.51-.03.79-.33.85-.82.06-.48-.37-.92-.85-.93Zm-10.1-7.26c.51,0,.91-.43.86-.92-.06-.48-.33-.79-.84-.82-.49-.03-.92.39-.93.87,0,.49.41.89.91.88h0Z"/><path class="cls-1" d="m256.2,281.55c2.39,2.04,3.28,4.42,2.01,7.3-.95,2.15-3.19,3.5-5.51,3.26-3.28-.33-4.96-2.37-5.43-5.54-11.73,4.74-23.39,9.45-35.12,14.19,1.1,1.81,1.45,3.71.55,5.69-.64,1.41-1.7,2.4-3.16,2.92-3.37,1.22-6.27-.59-7.58-4.78-.71,0-1.45-.02-2.2,0-6.96.26-13.94-5.09-15.62-12.26-.3-1.29-.41-2.59-.18-3.91.52-3.09,2.72-5.29,5.84-5.6,1.34-.13,2.71-.09,4.06.04,2.77.27,5.42-.14,7.96-1.18,2.06-.85,4.11-1.75,6.12-2.72,7.01-3.37,14.23-6.25,21.48-9.06,2.34-.91,4.64-1.92,6.9-3.01,2.8-1.34,5.2-3.24,7.24-5.59.99-1.14,2.01-2.27,3.09-3.33,1.74-1.7,3.73-2.98,6.17-3.46,4.14-.83,7.84,1.18,9.22,5.16.49,1.41.74,2.95.83,4.44.2,3.33-.24,6.6-1.28,9.79-.9,2.76-2.42,5.1-4.64,6.98-.21.18-.41.37-.73.65l-.02.02Zm2.21-15.67c-.18-1.49-.22-2.74-.5-3.93-.59-2.57-2.5-3.56-4.99-2.68-1.27.45-2.32,1.24-3.24,2.19-1.03,1.06-2.01,2.16-2.99,3.26-2.2,2.47-4.74,4.52-7.69,5.99-2.39,1.19-4.82,2.3-7.3,3.27-6.94,2.72-13.88,5.42-20.61,8.62-2.52,1.2-5.06,2.35-7.63,3.41-3.3,1.36-6.74,1.88-10.3,1.45-.9-.11-1.84-.12-2.74-.04-1.18.1-1.82.75-1.89,1.93-.05.78,0,1.61.22,2.36,1.07,3.58,3.39,6.1,6.82,7.52,2.48,1.03,5.02,1.19,7.53-.02.5-.24,1.03-.42,1.55-.63,8.49-3.33,17-6.61,25.47-10.02,5.77-2.32,11.49-4.75,17.18-7.24,1.92-.84,3.75-1.95,5.52-3.08,2.46-1.57,4.01-3.87,4.64-6.71.43-1.94.67-3.91.96-5.65h0Zm-5.31,21.61c.58-.03,1.02-.51,1.01-1.09,0-.63-.54-1.09-1.17-1.03-.58.06-1,.57-.96,1.13.05.57.55,1.01,1.12.98h0Zm-45.54,17.58c.49.03.93-.36.97-.85.04-.47-.35-.94-.83-1-.5-.06-.96.3-1.01.78-.06.57.33,1.04.86,1.07h0Z"/><path class="cls-1" d="m149.65,347.07c-11.4-.19-21.19-4.36-29.42-12.17-3.42-3.24-5.74-7.23-6.69-11.91-.21-1.01-.44-2.03-.53-3.06-.06-.61.04-1.28.24-1.86,1.58-4.76,4.21-8.92,7.45-12.71,3.57-4.18,7.92-7.38,12.81-9.85,3.32-1.68,6.87-2.56,10.55-2.85,13.59-1.07,24.69,3.98,33.71,13.94,2.42,2.68,4.19,5.81,5.66,9.11,1.76,3.93,1.62,7.81-.27,11.65-1.49,3.05-3.56,5.66-5.97,8.02-5.04,4.93-10.8,8.67-17.69,10.49-3.22.85-6.5,1.19-9.83,1.21h-.02Zm22.88-29.67c.02-2.94-.27-6.24-.75-9.52-.09-.6-.24-1.13-.75-1.56-3.88-3.33-8.1-6.06-13.03-7.59-6.12-1.9-12.3-2.28-18.51-.57-5.12,1.41-9.33,4.41-13.17,7.97-.29.27-.48.74-.55,1.15-.26,1.53-.52,3.07-.64,4.61-.32,4.2.13,8.36.81,12.5.62,3.78,1.54,7.49,3.03,11.04.22.53.5.95,1.02,1.26,6.36,3.82,13.17,5.95,20.67,5.76,7.11-.18,13.42-2.45,19.07-6.71.48-.36.74-.79.86-1.37,1.17-5.47,1.97-10.98,1.94-16.96h0Zm-50.22-6.59c-.19.24-.42.45-.57.71-1.04,1.78-2.07,3.58-3.1,5.36-.93,1.59-1.05,3.24-.65,5.05,1.01,4.5,3.49,8.05,6.9,11.03.04.03.13-.01.29-.03-2.03-7.21-3.16-14.52-2.87-22.13h0Zm52.51-.14c.75,7.21.3,14.24-.89,21.26,2.66-2.57,4.97-5.32,5.92-8.96.36-1.38.28-2.78-.19-4.13-1.01-2.93-2.58-5.56-4.44-8.02-.04-.05-.13-.05-.4-.16h0Z"/><path class="cls-1" d="m250.7,191.52c.02-6.32,5.12-11.38,11.45-11.35,6.24.03,11.33,5.13,11.33,11.37s-5.08,11.41-11.4,11.4c-6.32,0-11.39-5.09-11.37-11.42h0Zm10.98,6.72c-.51-2.08-1.31-3.91-2.38-5.76-1.13.82-2.15,1.55-3.14,2.27,1.22,2.2,3.11,3.4,5.52,3.5h0Zm.11-7.14c.96,2.36,1.85,4.52,2.78,6.79.45-.26.91-.52,1.39-.79-.7-2.38-1.68-4.5-2.92-6.61-.47.23-.88.43-1.25.61Zm6.29,3.57c1-2.06,1.01-3.93.2-5.83-1.18,0-1.8.18-2.6.73.77,1.64,1.55,3.28,2.4,5.1Zm-6.45-6.51c-.77-.99-1.48-1.91-2.23-2.88-.55.35-.96.62-1.43.91.79.96,1.49,1.81,2.23,2.71.46-.24.88-.45,1.43-.74Zm-3.77,2.08c-.61-.72-1.1-1.3-1.63-1.93-.8,1.35-1,2.25-.77,3.51.15-.07.3-.12.42-.2.62-.42,1.23-.85,1.98-1.38Zm8.38-3.88c-1.05-1.02-2.21-1.47-3.65-1.4.54.74,1.03,1.42,1.53,2.12.76-.26,1.42-.48,2.12-.72Z"/><path class="cls-1" d="m270.19,229c-6.31.02-11.44-5.08-11.45-11.37,0-6.25,5.06-11.36,11.29-11.4,6.32-.04,11.47,5.02,11.51,11.31s-5.06,11.44-11.36,11.46h0Zm5.53-15.31c-1.78,1.22-3.44,2.36-5.19,3.57.17.49.35,1.01.54,1.54,2.07-.66,4.58-2.01,5.64-3.02-.31-.65-.64-1.35-.98-2.08h-.01Zm-8.15-2.27c.66,1.13,1.27,2.17,1.9,3.25,1.47-.88,2.85-1.69,4.04-2.84-1.89-1.16-3.87-1.3-5.94-.42h0Zm4.31,12.61c2.4-.44,4.56-2.69,4.62-4.72-1.61.75-3.21,1.5-4.85,2.26.07.82.15,1.6.22,2.46h.01Zm-4.8-8.1c-.63-1.08-1.17-2.01-1.78-3.05-1.19,1.33-1.85,2.66-1.88,4.49,1.27-.5,2.4-.94,3.66-1.44Zm.98,2.51c-1.48.57-2.8,1.08-4.12,1.59.01.53.16.89.7.76,1.26-.3,2.51-.65,3.83-.99-.16-.52-.28-.89-.42-1.36h.01Zm1.11,5.79c-.05-.6-.1-1.15-.16-1.82-.93.26-1.69.48-2.64.74.92.73,1.73,1.05,2.8,1.08h0Z"/><path class="cls-1" d="m235.24,205.02c6.3,0,11.43,5.11,11.42,11.4,0,6.3-5.14,11.39-11.45,11.37-6.26-.02-11.32-5.08-11.34-11.35-.02-6.32,5.05-11.42,11.37-11.43h0Zm-.97,12.64c2.62-.92,5.11-2.07,7.11-4.04-1.52-3.72-6.42-4.99-8.97-3.24-.05,2.06.86,5.68,1.86,7.28Zm3.09,5.08c2.69-.77,4.74-3.5,4.48-5.75-2.08,1.07-4.19,2.15-6.39,3.28.65.84,1.3,1.67,1.91,2.47Zm-5.95-4.27c-.58-2.07-1.1-3.93-1.62-5.8-1.4,1.46-1.74,4.29-.69,6.18.74-.12,1.51-.25,2.31-.38h0Zm-.72,2.89c1,.95,1.99,1.47,3.43,1.66-.54-.8-.96-1.43-1.4-2.1-.67.14-1.27.28-2.03.44Z"/><path class="cls-1" d="m60.4,208.22c-3.43,0-6.12-2.76-6.09-6.21.03-3.35,2.78-6.05,6.15-6.03,3.41,0,6.13,2.79,6.09,6.22-.04,3.38-2.75,6.04-6.15,6.02Zm3.5-6.09c0-1.93-1.58-3.52-3.5-3.49-1.87.02-3.42,1.58-3.43,3.45-.02,1.88,1.5,3.44,3.39,3.47,1.95.04,3.54-1.5,3.55-3.43h0Z"/><path class="cls-1" d="m255.63,208.63c-.02,1.94-1.59,3.46-3.53,3.43-1.89-.04-3.42-1.57-3.42-3.43s1.59-3.52,3.49-3.51c1.93,0,3.49,1.59,3.47,3.51h-.01Zm-3.41,1.04c.33-.49.64-.76.69-1.08.08-.45-.25-.73-.71-.76s-.9.39-.77.83c.09.31.42.55.79,1.01h0Z"/><path class="cls-1" d="m131.39,161.74c0-1.81,1.05-3.61,2.52-4.02,1.48-.41,2.83.17,3.37,1.61.63,1.69-.17,3.89-1.74,4.78-.9.51-1.83.57-2.73.03-1.03-.61-1.39-1.59-1.42-2.41h0Zm3.38-1.74c-1.03.73-1.15,1.17-.59,1.98.9-.63.99-.89.59-1.98Z"/><path class="cls-1" d="m164.65,164.12c-.05,1.43-.61,2.61-1.84,3.41-1.49.97-3.28.41-3.98-1.2-.82-1.89.26-4.3,2.11-5.07,1.6-.67,3.33.33,3.65,2.13.04.23.04.47.06.73Zm-3.45,1.45c1.16-.77,1.31-1.51.5-2.03-.63.52-.89,1.13-.5,2.03Z"/><path class="cls-1" d="m133.65,307.43c1.11-.37,2.12-.71,3.27-1.1-.17-.44-.33-.82-.47-1.22-.12-.34-.26-.68-.29-1.03-.05-.61.31-1.09.87-1.28.58-.2,1.17,0,1.52.62.39.69.68,1.42,1.06,2.23.76-.14,1.49-.28,2.33-.43-.17-.51-.33-.91-.43-1.33-.2-.79.08-1.44.71-1.7.68-.27,1.39.03,1.75.81.27.57.46,1.17.73,1.86.88-.04,1.74-.08,2.65-.13-.09-.73-.2-1.35-.23-1.98-.03-.57.27-1.06.83-1.17.38-.08.91,0,1.2.22.31.23.48.71.61,1.11.18.56.27,1.15.42,1.82.95.11,1.88.21,2.97.33,0-.65-.04-1.23,0-1.81.06-.68.52-1.15,1.11-1.24.57-.09,1.18.29,1.39.9.1.3.11.62.15.94.06.55.12,1.1.18,1.7.86.22,1.66.42,2.59.66.06-.46.1-.87.16-1.28.15-.98.68-1.5,1.44-1.43.71.06,1.14.62,1.17,1.54.02.63,0,1.27,0,2.01.86.35,1.74.7,2.71,1.09.1-.58.17-1.07.28-1.56.18-.8.73-1.27,1.39-1.21.71.07,1.23.69,1.19,1.54-.04.83-.15,1.66-.22,2.5.56.35,1.07.66,1.56.99.3.2.6.41.83.67.48.52.5,1.27.1,1.75-.37.45-1.02.58-1.64.29-.21-.1-.4-.26-.61-.38-.2-.12-.4-.22-.7-.38-.16.53-.27.99-.42,1.42-.29.84-.92,1.24-1.62,1.05s-1.06-.85-.91-1.71c.12-.7.28-1.39.45-2.18-.86-.36-1.64-.69-2.59-1.09-.05.61-.09,1.03-.13,1.45-.02.24-.03.48-.07.71-.18.88-.73,1.37-1.44,1.31s-1.18-.64-1.16-1.54c.02-.87.1-1.75.17-2.75-.74-.22-1.48-.44-2.37-.7-.02.51-.04.89-.06,1.26-.02.36,0,.72-.06,1.07-.12.6-.62.98-1.18,1s-1.08-.32-1.24-.93c-.12-.46-.13-.94-.17-1.42-.03-.4-.03-.8-.05-1.19,0-.07-.06-.14-.14-.33-.75-.09-1.55-.2-2.51-.32.03.55.06.98.08,1.4,0,.36.07.72,0,1.07-.1.62-.55,1.02-1.12,1.07-.55.05-1.1-.27-1.3-.85-.14-.41-.19-.85-.26-1.28-.06-.35-.1-.71-.16-1.06-.02-.11-.1-.21-.17-.33h-2.16c.13.62.25,1.14.36,1.66.09.43.22.86.23,1.29.02.68-.41,1.17-1.01,1.29-.55.11-1.13-.14-1.38-.71-.24-.54-.36-1.14-.53-1.71-.14-.45-.28-.91-.45-1.48-.74.11-1.42.21-2.26.34.18.52.31.92.45,1.32.11.3.25.59.32.9.19.8-.12,1.42-.78,1.66-.62.22-1.22,0-1.6-.68-.21-.38-.35-.8-.52-1.21-.17-.4-.33-.8-.55-1.35-1.04.34-2.04.67-3.11,1.02.16.51.29.92.41,1.32.1.34.22.69.25,1.04.06.69-.3,1.2-.89,1.39-.56.17-1.19-.07-1.5-.68-.3-.6-.51-1.24-.81-1.98-.49.23-.91.43-1.32.63-.32.15-.63.35-.97.45-.66.18-1.23-.08-1.52-.64-.27-.52-.2-1.08.3-1.52.35-.31.79-.53,1.2-.77.34-.2.69-.38,1.08-.59-.17-.36-.34-.67-.47-1-.25-.65-.09-1.24.4-1.6.54-.38,1.24-.32,1.73.21.34.38.61.83.96,1.32v.03Z"/></svg>