<?xml version="1.0" encoding="UTF-8"?><svg id="Calque_1" xmlns="http://www.w3.org/2000/svg" viewBox="0 0 101.43 186.48"><defs><style>.cls-1{font-family:Arial-BoldMT, Arial;font-size:23.84px;font-weight:700;letter-spacing:.04em;}.cls-1,.cls-2{isolation:isolate;}.cls-1,.cls-3{fill:#fff;}.cls-3{stroke-width:0px;}</style></defs><g id="Groupe_49"><g id="PELOPS" class="cls-2"><text class="cls-1" transform="translate(0 181.29)"><tspan x="0" y="0">PELOPS</tspan></text></g><path id="Tracé_55" class="cls-3" d="M100.43,51.89c0,27.55-22.34,49.89-49.89,49.89h0v41.73S10.91,100.52,2.3,64.62c-1.1-4.15-1.65-8.43-1.65-12.73v-1C.93,23.34,23.48,1.23,51.03,1.51c27.55.28,49.66,22.83,49.38,50.38h.02ZM50.54,36.06c-8.74,0-15.83,7.1-15.82,15.84,0,8.74,7.1,15.83,15.84,15.82,8.74,0,15.82-7.09,15.82-15.83s-7.09-15.83-15.83-15.83c0,0,0,0,0,0Z"/></g></svg>